<svg width="48" height="48" viewBox="0 0 48 48" fill="none" xmlns="http://www.w3.org/2000/svg">
<rect width="48" height="48" rx="10" fill="#ED3B44"/>
<path d="M24.7778 27L21 23.2222" stroke="#FAFAFA" stroke-width="2" stroke-linecap="round" stroke-linejoin="round"/>
<path d="M14 34C16 34 18.608 34.3417 19.9748 32.9749C21.3417 31.608 21.3417 29.392 19.9748 28.0251C18.608 26.6583 16.3919 26.6583 15.0251 28.0251C13.6583 29.392 15.0251 32 14 34Z" stroke="#FAFAFA" stroke-width="2" stroke-linecap="round" stroke-linejoin="round"/>
<path d="M19.9999 28C19.5085 27.5086 19.2628 27.2629 19.1239 27.0056C18.7908 26.3885 18.8051 25.6421 19.1617 25.0384C19.3104 24.7866 19.5654 24.5505 20.0753 24.0783L29.9434 14.9412C30.8126 14.1365 32.1624 14.1624 32.9999 15C33.8375 15.8376 33.8635 17.1874 33.0587 18.0565L23.9216 27.9246C23.4494 28.4345 23.2134 28.6895 22.9616 28.8382C22.3578 29.1948 21.6114 29.2091 20.9944 28.876C20.7371 28.7371 20.4914 28.4914 19.9999 28Z" stroke="#FAFAFA" stroke-width="2" stroke-linecap="round" stroke-linejoin="round"/>
</svg>
